<svg xmlns="http://www.w3.org/2000/svg" width="129" height="129" viewBox="0 0 129 129"><g transform="translate(0.5 0.5)"><rect width="62" height="62" transform="translate(2 64)" fill="none" stroke="#fff" stroke-linecap="round" stroke-linejoin="round" stroke-miterlimit="10" stroke-width="5"/><rect width="62" height="62" transform="translate(64 64)" fill="none" stroke="#fff" stroke-linecap="round" stroke-linejoin="round" stroke-miterlimit="10" stroke-width="5"/><rect width="62" height="62" transform="translate(33 2)" fill="none" stroke="#fff" stroke-linecap="round" stroke-linejoin="round" stroke-miterlimit="10" stroke-width="5"/><path d="M5,54.429,22.714,19,40.429,54.429" transform="translate(10.286 58.286)" fill="none" stroke="#fff" stroke-linecap="round" stroke-linejoin="round" stroke-miterlimit="10" stroke-width="5"/><line x2="18" transform="translate(24 99)" fill="none" stroke="#fff" stroke-linecap="round" stroke-linejoin="round" stroke-miterlimit="10" stroke-width="5"/><path d="M43,11.2A16.6,16.6,0,0,0,29.714,5a17.714,17.714,0,1,0,0,35.429A16.6,16.6,0,0,0,43,34.229" transform="translate(34.286 10.286)" fill="none" stroke="#fff" stroke-linecap="round" stroke-linejoin="round" stroke-miterlimit="10" stroke-width="5"/><path d="M37.714,36.714H20V19H37.714a8.883,8.883,0,0,1,8.857,8.857h0A8.883,8.883,0,0,1,37.714,36.714Z" transform="translate(61.714 58.286)" fill="none" stroke="#fff" stroke-linecap="round" stroke-linejoin="round" stroke-miterlimit="10" stroke-width="5"/><path d="M37.714,40.714H20V23H37.714a8.883,8.883,0,0,1,8.857,8.857h0A8.883,8.883,0,0,1,37.714,40.714Z" transform="translate(61.714 72)" fill="none" stroke="#fff" stroke-linecap="round" stroke-linejoin="round" stroke-miterlimit="10" stroke-width="5"/></g></svg>