<svg xmlns="http://www.w3.org/2000/svg" width="125.144" height="125.163" viewBox="0 0 125.144 125.163"><path d="M77.589,125.159H47.555a2.5,2.5,0,0,1-2.5-2.5V95.125H40.046v7.509a2.5,2.5,0,0,1-2.5,2.5H12.514a2.5,2.5,0,0,1-2.5-2.5V75.1h-3.8A6.257,6.257,0,0,1,0,68.844V51.324A21.325,21.325,0,0,1,15.968,30.7a17.52,17.52,0,1,1,23.077,0,21.124,21.124,0,0,1,6.507,2.9,17.52,17.52,0,0,1,34.139,0,21.024,21.024,0,0,1,6.457-2.9,17.52,17.52,0,1,1,23.077,0,21.325,21.325,0,0,1,15.918,20.624v17.52a6.257,6.257,0,0,1-6.257,6.257h-3.754v27.532a2.5,2.5,0,0,1-2.5,2.5H87.6a2.5,2.5,0,0,1-2.5-2.5V95.125H80.092v27.532A2.5,2.5,0,0,1,77.589,125.159Zm-27.532-5.006H75.086V92.622a2.5,2.5,0,0,1,2.5-2.5h6.257A1.251,1.251,0,0,0,85.1,88.868V71.347A16.269,16.269,0,0,0,68.829,55.079H56.315A16.269,16.269,0,0,0,40.046,71.347v17.52A1.251,1.251,0,0,0,41.3,90.119h6.257a2.5,2.5,0,0,1,2.5,2.5ZM90.1,100.131h20.023V72.6a2.5,2.5,0,0,1,2.5-2.5h6.257a1.3,1.3,0,0,0,1.251-1.251V51.324A16.269,16.269,0,0,0,103.87,35.056H91.355a16.069,16.069,0,0,0-11.263,4.755,17.52,17.52,0,0,1-5.857,10.913A21.325,21.325,0,0,1,90.1,71.347Zm-75.086,0H35.04V71.347A21.325,21.325,0,0,1,51.059,50.724a17.52,17.52,0,0,1-6.007-10.662,16.068,16.068,0,0,0-11.313-5.006H21.224A16.269,16.269,0,0,0,5.006,51.324v17.52a1.251,1.251,0,0,0,1.2,1.251h6.307a2.5,2.5,0,0,1,2.5,2.5ZM62.572,50.073A12.514,12.514,0,1,0,50.058,37.558,12.514,12.514,0,0,0,62.572,50.073ZM97.612,30.05A12.514,12.514,0,1,0,85.1,17.535,12.514,12.514,0,0,0,97.612,30.05Zm-70.081,0a12.489,12.489,0,1,0-.05,0Z" transform="translate(0 0.004)" fill="#fff"/></svg>