<svg xmlns="http://www.w3.org/2000/svg" width="122.251" height="135.696" viewBox="0 0 122.251 135.696"><g transform="translate(0.442 0.5)"><path d="M3,53.787,14.631,35C21.341,24.71,32.525,18,45.05,18H74.575A17.946,17.946,0,0,1,56.681,35.894H47.734" transform="translate(0 55.575)" fill="none" stroke="#fff" stroke-linecap="round" stroke-linejoin="round" stroke-miterlimit="10" stroke-width="5"/><path d="M46.261,35.894H82.048l5.368-7.157A26.7,26.7,0,0,1,108.889,18h0L96.811,39.472A36.325,36.325,0,0,1,65.049,58.261h0A106.563,106.563,0,0,0,6,76.155H6" transform="translate(10.42 55.575)" fill="none" stroke="#fff" stroke-linecap="round" stroke-linejoin="round" stroke-miterlimit="10" stroke-width="5"/><path d="M19.463,73.575C15.437,66.417,13.2,54.786,13.2,42.261,13.2,19.894,20.8,2,30.646,2S48.093,19.894,48.093,42.261c0,14.762-3.579,28.183-8.5,34.893" transform="translate(35.429)" fill="none" stroke="#fff" stroke-linecap="round" stroke-linejoin="round" stroke-miterlimit="10" stroke-width="5"/><ellipse cx="40.261" cy="17.446" rx="40.261" ry="17.446" transform="translate(25.367 24.814)" fill="none" stroke="#fff" stroke-linecap="round" stroke-linejoin="round" stroke-miterlimit="10" stroke-width="5"/></g></svg>