<svg xmlns="http://www.w3.org/2000/svg" width="191.076" height="146.371" viewBox="0 0 191.076 146.371">
  <g id="Layer_2" data-name="Layer 2" transform="translate(-10.258 -13.932)">
    <g id="Layer_1" data-name="Layer 1">
      <g id="Group_28" data-name="Group 28" transform="translate(10.258 13.932)">
        <path id="Path_82" data-name="Path 82" d="M209.1,59.569c-1.6,1.936-2.023,4.464-4.579,5.517a8.164,8.164,0,0,1-.971.317.424.424,0,0,0,0-.175,9.611,9.611,0,0,0-1.821-2.637c-.607-.749-1.4-2.023-2.428-2.138a.83.83,0,0,0-1.032.782c-.047,1.093,1.066,2.1,1.794,2.8a10.541,10.541,0,0,0,2.07,1.72,4.269,4.269,0,0,0-2.63,1.585c-2.1,2.954,1.47,6.306,1.942,9.205.148.9,1.349.674,1.605,0,.506-1.3,0-2.536-.486-3.77-.33-.809-1.126-1.909-1.092-2.785.081-2.165,1.767-1.942,3.136-2.374a9.1,9.1,0,0,0,5.975-7.418.877.877,0,0,0-1.484-.614" transform="translate(-74.815 -33.253)" fill="#ff9f1c"/>
        <path id="Path_83" data-name="Path 83" d="M92.747,103c-4.046,0-4.087,6.339,0,6.339s4.087-6.339,0-6.339" transform="translate(-39.464 -47.469)" fill="#ff9f1c"/>
        <path id="Path_84" data-name="Path 84" d="M112.541,99.19c-3.143,0-3.149,4.883,0,4.883s3.149-4.883,0-4.883" transform="translate(-46.133 -46.229)" fill="#ff9f1c"/>
        <path id="Path_85" data-name="Path 85" d="M65.252,72.66c-3.251,0-3.257,5.051,0,5.051s3.251-5.051,0-5.051" transform="translate(-30.709 -37.59)" fill="#ff9f1c"/>
        <path id="Path_86" data-name="Path 86" d="M95.468,61.8c-4.228,0-4.235,6.569,0,6.569s4.235-6.569,0-6.569" transform="translate(-40.309 -34.054)" fill="#ff9f1c"/>
        <path id="Path_87" data-name="Path 87" d="M115.987,75.31c-3.291,0-3.3,5.105,0,5.105s3.291-5.105,0-5.105" transform="translate(-47.219 -38.453)" fill="#ff9f1c"/>
        <path id="Path_88" data-name="Path 88" d="M117,47.227a3.028,3.028,0,0,0-1.079-1.524,2.893,2.893,0,0,0-3.568,0,3.055,3.055,0,0,0-1.059,1.531,2.994,2.994,0,0,0,.3,2.266,3.042,3.042,0,0,0,3.325,1.349,2.94,2.94,0,0,0,1.76-1.349c.1-.236.2-.465.3-.674a2.515,2.515,0,0,0,.094-.62,2.023,2.023,0,0,0-.067-.958" transform="translate(-46.462 -28.613)" fill="#ff9f1c"/>
        <path id="Path_89" data-name="Path 89" d="M134.938,33.682a2.327,2.327,0,0,0-.593-1.018l-.465-.357a2.273,2.273,0,0,0-1.16-.317,1.76,1.76,0,0,0-.89.2,2.111,2.111,0,0,0-1.214,1.221,1.733,1.733,0,0,0-.2.883l.081.614a2.266,2.266,0,0,0,.593,1.018l.465.357a2.32,2.32,0,0,0,1.16.317,2.623,2.623,0,0,0,1.625-.674,1.787,1.787,0,0,0,.479-.742,1.76,1.76,0,0,0,.2-.89l-.081-.607" transform="translate(-52.722 -24.347)" fill="#ff9f1c"/>
        <path id="Path_90" data-name="Path 90" d="M141.354,57.72c-4.154,0-4.161,6.454,0,6.454s4.161-6.454,0-6.454" transform="translate(-55.268 -32.726)" fill="#ff9f1c"/>
        <path id="Path_91" data-name="Path 91" d="M130.13,48.268a1.639,1.639,0,0,0-.452-.674l-.438-.337a2.185,2.185,0,0,0-1.1-.3l-.344.027-.674.088-.607.256a1.922,1.922,0,0,0-.674.674,1.261,1.261,0,0,0-.324.56,1.22,1.22,0,0,0-.169.634,1.275,1.275,0,0,0,0,.674,1.221,1.221,0,0,0,.169.634,1.855,1.855,0,0,0,.526.816l.506.4.607.25.674.094.674-.094.607-.25a2.023,2.023,0,0,0,.674-.674,1.261,1.261,0,0,0,.324-.56,1.9,1.9,0,0,0,.216-.971v-.364a1.72,1.72,0,0,0-.189-.843" transform="translate(-51.057 -29.222)" fill="#ff9f1c"/>
        <path id="Path_92" data-name="Path 92" d="M155.333,43.37c-3.938,0-3.945,6.123,0,6.123s3.945-6.123,0-6.123" transform="translate(-59.872 -28.053)" fill="#ff9f1c"/>
        <path id="Path_93" data-name="Path 93" d="M82.3,53.839a2.6,2.6,0,0,0-3.689,0,1.888,1.888,0,0,0-.54.836,1.929,1.929,0,0,0-.229,1.012,2.65,2.65,0,0,0,.782,1.841,2.6,2.6,0,0,0,3.689,0,1.949,1.949,0,0,0,.54-.836,2.023,2.023,0,0,0,.209-.971,2.617,2.617,0,0,0-.762-1.848" transform="translate(-35.602 -31.212)" fill="#ff9f1c"/>
        <path id="Path_94" data-name="Path 94" d="M91.33,36.539a2.563,2.563,0,0,0-2.785-.526A2.536,2.536,0,0,0,87,38.346a2.657,2.657,0,0,0,1.268,2.205,2.61,2.61,0,0,0,3.089-.4,2.8,2.8,0,0,0,0-3.615" transform="translate(-38.585 -25.592)" fill="#ff9f1c"/>
        <path id="Path_95" data-name="Path 95" d="M104.849,39.38c-3.176,0-3.183,4.943,0,4.943s3.183-4.943,0-4.943" transform="translate(-43.62 -26.754)" fill="#ff9f1c"/>
        <path id="Path_96" data-name="Path 96" d="M116.371,27.366a2.785,2.785,0,0,0-1.888-.776,2.752,2.752,0,0,0-1.861.776,2.023,2.023,0,0,0-.553.863,1.976,1.976,0,0,0-.229,1.025,2.657,2.657,0,0,0,.782,1.882,2.7,2.7,0,0,0,1.882.782,2.758,2.758,0,0,0,1.888-.782,1.929,1.929,0,0,0,.546-.856,2.023,2.023,0,0,0,.236-1.025,2.745,2.745,0,0,0-.782-1.888" transform="translate(-46.672 -22.59)" fill="#ff9f1c"/>
        <path id="Path_97" data-name="Path 97" d="M151.681,22.453a2.468,2.468,0,0,0-.627-1.079l-.5-.378a2.448,2.448,0,0,0-1.227-.337,1.888,1.888,0,0,0-.944.216,2.172,2.172,0,0,0-1.288,1.288,1.882,1.882,0,0,0-.216.937c.034.223.061.438.088.674a2.549,2.549,0,0,0,.634,1.079l.492.378a2.455,2.455,0,0,0,1.234.337,2.819,2.819,0,0,0,1.726-.715,1.814,1.814,0,0,0,.5-.789,1.821,1.821,0,0,0,.216-.944,6.616,6.616,0,0,0-.088-.674" transform="translate(-58.082 -20.658)" fill="#ff9f1c"/>
        <path id="Path_98" data-name="Path 98" d="M168.376,55.744a2.455,2.455,0,0,0-.674-1.113l-.513-.391a2.549,2.549,0,0,0-1.275-.351,1.875,1.875,0,0,0-.971.223,2.232,2.232,0,0,0-1.349,1.349,1.841,1.841,0,0,0-.216.971l.088.674a2.583,2.583,0,0,0,.674,1.113l.513.391a2.59,2.59,0,0,0,1.275.351,1.949,1.949,0,0,0,.978-.223,1.922,1.922,0,0,0,.809-.519,1.854,1.854,0,0,0,.526-.816,1.9,1.9,0,0,0,.216-.971Z" transform="translate(-63.454 -31.478)" fill="#ff9f1c"/>
        <path id="Path_99" data-name="Path 99" d="M137.6,41c-2.994,0-3,4.66,0,4.66s3.008-4.66,0-4.66" transform="translate(-54.331 -27.282)" fill="#ff9f1c"/>
        <path id="Path_100" data-name="Path 100" d="M171.829,22c-4.444,0-4.451,6.9,0,6.9s4.424-6.9,0-6.9" transform="translate(-65.12 -21.095)" fill="#ff9f1c"/>
        <path id="Path_101" data-name="Path 101" d="M184.237,53.066a2.88,2.88,0,0,0-.6-1h0a1.205,1.205,0,0,0-.088-.094l-.094-.108a1.47,1.47,0,0,0-.627-.4,1.49,1.49,0,0,0-.749-.169l-.513.074a1.9,1.9,0,0,0-.85.492l-.169.182-.054.04a2.2,2.2,0,0,0,0,3.17,1.713,1.713,0,0,0,.722.459,1.673,1.673,0,0,0,.863.2l.6-.081a2.3,2.3,0,0,0,.991-.573l.351-.459a2.185,2.185,0,0,0,.3-1.126l-.081-.6" transform="translate(-68.808 -30.635)" fill="#ff9f1c"/>
        <path id="Path_102" data-name="Path 102" d="M190.415,77.81c-2.994,0-3,4.66,0,4.66s3.008-4.66,0-4.66" transform="translate(-71.526 -39.267)" fill="#ff9f1c"/>
        <path id="Path_103" data-name="Path 103" d="M225.963,108.72c-2.7,0-2.7,4.208,0,4.208s2.7-4.208,0-4.208" transform="translate(-83.174 -49.332)" fill="#ff9f1c"/>
        <path id="Path_104" data-name="Path 104" d="M215.994,93.828a1.068,1.068,0,0,0-.067-.29,1.275,1.275,0,0,0-.9-.9l-.283-.067a1.349,1.349,0,0,0-.715,0,.917.917,0,0,0-.459.121,1.349,1.349,0,0,0-.573.371l-.283.364-.182.432a1.349,1.349,0,0,0-.034.715.9.9,0,0,0,.128.452,1.3,1.3,0,0,0,.371.58l.364.277.425.182a1.349,1.349,0,0,0,.715,0,.917.917,0,0,0,.459-.121,1.349,1.349,0,0,0,.573-.371l.283-.364.182-.432a1.753,1.753,0,0,0,0-.951" transform="translate(-79.437 -44.057)" fill="#ff9f1c"/>
        <path id="Path_105" data-name="Path 105" d="M238.182,49.39a1.646,1.646,0,0,0-.438-.755,1.767,1.767,0,0,0-1.207-.506,1.3,1.3,0,0,0-.674.148,1.76,1.76,0,0,0-1.052,1.565l.061.459a1.747,1.747,0,0,0,.438.755,1.807,1.807,0,0,0,1.214.5,1.281,1.281,0,0,0,.674-.148,1.3,1.3,0,0,0,.553-.351,1.349,1.349,0,0,0,.357-.553,1.3,1.3,0,0,0,.148-.674,2.612,2.612,0,0,0-.067-.452" transform="translate(-86.713 -29.602)" fill="#ff9f1c"/>
        <path id="Path_106" data-name="Path 106" d="M187.28,34.5a1.545,1.545,0,0,0,0,3.089,1.545,1.545,0,0,0,0-3.089" transform="translate(-70.751 -25.165)" fill="#ff9f1c"/>
        <path id="Path_107" data-name="Path 107" d="M89.6,171.07a36.75,36.75,0,0,1-1.922-5.119,17.136,17.136,0,0,1-.067-6.474c.094-.546-.674-1-.978-.411a13.373,13.373,0,0,0-1.093,3.77H85.5a3.527,3.527,0,0,1-4.586.566c-1.12-.782-2.239,1.093-1.079,1.841a4.127,4.127,0,0,0,1.086.479,10,10,0,0,1-1.153,2.731.465.465,0,0,0-.472-.533c-.985.094-1.834-.627-2.738-.87a2.367,2.367,0,0,0-2.259.465.856.856,0,0,0-.216.856v.108a.674.674,0,0,0,.472.472,4.72,4.72,0,0,0,1.146-.115,3.568,3.568,0,0,1,1.349.276,2.249,2.249,0,0,0,2.468-.223l-.223.371a4.147,4.147,0,0,0-.762,2.482c.169,1.888,2.394,3.932,3.911,4.781a.546.546,0,0,0,.742-.735c-.91-2.118-3.628-3.372-2.36-5.968a7.27,7.27,0,0,0,1.059-3.9,4.242,4.242,0,0,0,3.52-1.4,9.756,9.756,0,0,0,2.7,7.418c.614.58,1.821,0,1.5-.87" transform="translate(-34.367 -65.634)" fill="#ff9f1c"/>
        <path id="Path_108" data-name="Path 108" d="M214.473,178.4a4.99,4.99,0,0,0-4.431-1.349c-2.1.317-5.065,2.468-7.108,1.248a5,5,0,0,0-2.947-4.336,8.475,8.475,0,0,0-4.869-.391,14.745,14.745,0,0,1-7.115-.526c-.533-.182-1.045.62-.573.985a8.551,8.551,0,0,0,5.732,1.868,3.135,3.135,0,0,0,1.477,3.284c.182.081.5,0,.459-.263a12.587,12.587,0,0,1-.223-1.571,5.57,5.57,0,0,1,.3-1.646,7.277,7.277,0,0,1,3.217.047c1.9.62,1.942,2.279,2.731,3.756a.863.863,0,0,0,1.194.277,4.721,4.721,0,0,0,2.232.674,21.462,21.462,0,0,1,.189,2.286,2.772,2.772,0,0,1-.162,1.126,4.276,4.276,0,0,1-.607.708.674.674,0,0,0,0,.917c1.16,1.018,2.252-.391,2.489-1.5a4.9,4.9,0,0,0-.769-3.574l.276.007c1.592-.256,3.048-1.248,4.667-1.315,1.5-.067,2.023,1.079,3.372,1.207a.674.674,0,0,0,.627-.479c.047-.121.094-.243.148-.357a1.093,1.093,0,0,0-.283-1.072" transform="translate(-71.226 -70.269)" fill="#ff9f1c"/>
        <path id="Path_109" data-name="Path 109" d="M233.858,169.863a23.95,23.95,0,0,1-2.354-.964,5.4,5.4,0,0,0-.054-.634,6.562,6.562,0,0,0-2.2-3.979,2.2,2.2,0,0,0,1.524-1.8c.054-.432-.438-.674-.782-.593-1.12.2-2.023.978-3.183.465a4.1,4.1,0,0,0-1.349-.519,9.255,9.255,0,0,0-1.794.384c-.492.061-.674.8-.121.937a11.8,11.8,0,0,1,1.207.135,2.428,2.428,0,0,1,.917.546,3.952,3.952,0,0,0,2.057.674h.148c1.133,1.828,2.023,3.648,1.349,5.881-.519,1.652-1.214,2.7.04,4.208a.782.782,0,0,0,.782.209l.31-.088a.438.438,0,0,0,.31-.411,5.4,5.4,0,0,1,.236-2.745c.115-.324.223-.634.31-.937a1.484,1.484,0,0,0,.169.115c.486.33,1.059.5,1.538.85s.641.877,1.12,1.173a.816.816,0,0,0,1.1-.29c.749-1.045-.452-2.158-1.308-2.617" transform="translate(-82.935 -66.626)" fill="#ff9f1c"/>
        <path id="Path_110" data-name="Path 110" d="M156.872,197.412c-.142-.371-.5-.438-.634-.883a3.757,3.757,0,0,1,.155-1.517,5.53,5.53,0,0,0-.937-4.309c-.533-.755-1.753-.081-1.261.735,1.039,1.706.351,2.974.317,4.768a2.219,2.219,0,0,0,1.5,2.327.769.769,0,0,0,.863-.351.8.8,0,0,0,0-.769" transform="translate(-60.427 -75.919)" fill="#ff9f1c"/>
        <path id="Path_111" data-name="Path 111" d="M138.412,184.321a4.323,4.323,0,0,0-2.219-2.913,28.282,28.282,0,0,0-2.92-.809,11.33,11.33,0,0,1-2.232-1.308c1.052-2.273-.735-4.95-2.475-6.366a.364.364,0,0,0-.573.445c.991,1.861,2.313,4.5-.378,5.928-.674.351-1.592.277-2.306.573a4.08,4.08,0,0,0-2.441,2.556c-.755,2.165-.607,5.793,1.909,6.623a.674.674,0,0,0,.674-1.167,3.517,3.517,0,0,1-.931-3.851c.418-1.463,1.47-1.989,2.886-2.475a11.8,11.8,0,0,0,2.421-.87,4.525,4.525,0,0,0,2.354,2.023,2.7,2.7,0,0,0-.877,1.6,3.918,3.918,0,0,0,.371,2.893.674.674,0,0,0,1.261-.337,3.621,3.621,0,0,1,.6-2.94.816.816,0,0,0,.223-.674c1.605.432,3.089.856,3.264,2.961A6.022,6.022,0,0,1,135.343,191c-.5.533.162,1.524.816,1.059,2.374-1.713,2.981-5.011,2.239-7.742" transform="translate(-50.134 -70.199)" fill="#ff9f1c"/>
        <path id="Path_112" data-name="Path 112" d="M190.39,70.151c-2.394,1.43-3.062,6-6.5,5.4-2.529-.438-4.141-3.028-6.825-3.372-2.205-.27-4.181.769-6.123,1.646-1.2.54-2.509.85-3.689,1.349a1.012,1.012,0,0,0-.216-.067,55.084,55.084,0,0,0-8.16-.944,40.868,40.868,0,0,0,5.348-3.015c2.064-1.443,4.984-3.878,5.84-6.7a17.668,17.668,0,0,0,.438-1.949,4.289,4.289,0,0,0-.29-2.023.573.573,0,0,0-1.032-.135c-1.308,2.07-1.922,4.2-3.709,6a24.777,24.777,0,0,1-6.319,4.336c-4.161,2.145-8.538,3.884-11.836,7.337a24.75,24.75,0,0,0-1.767,2.091c-1-3.925-3.621-5.955-7.122-7.681-1.888-.931-3.412-1.929-4.046-3.615,4.464-2.468,10.925-3.183,12.294-8.875.33-1.349-1.787-1.949-2.111-.58-1.133,4.856-6.744,5.753-10.473,8.315a7.122,7.122,0,0,1-.061-.951c.04-2.354,1.639-4.532,1.349-6.8a.985.985,0,0,0-1.72-.674c-2.954,2.36-3.372,9.037-1.436,12.139a9.179,9.179,0,0,0,4.721,3.372c3.244,1.349,5.672,2.913,7.513,5.989a.56.56,0,0,0,.4.283c-1.855,2.623-3.372,5.5-5.018,8.241a24.426,24.426,0,0,1-4.883,6.07,15.511,15.511,0,0,1-5.82,2.934c-.937-2.92-1.976-5.8-3.143-8.572a9.442,9.442,0,0,0,2.306-2.327,10.419,10.419,0,0,0-.31-12.409c-6.562-8.221-21.129-2.873-19.793,7.944a8.834,8.834,0,0,0,.418,1.848,8.484,8.484,0,0,0,5.078,6.184,54.688,54.688,0,0,0-2.785,7.614,1.7,1.7,0,0,0-.384-.061c-6.353-.182-10.473-4.262-11.836-10.359a19.664,19.664,0,0,1-.465-4.363,4.431,4.431,0,0,0,.04-1.194c.236-3.581,1.517-7.1,4.35-9.327,3.925-3.089,9.5-2.549,13.488-5.577,2.765-2.091,5.017-6.07,4.276-9.57a1.133,1.133,0,0,0-2.165,0c-.843,3.237-1.281,5.955-4.215,8.039-2.313,1.639-5.152,2.178-7.8,3.122a6.584,6.584,0,0,0,.175-4.471A4.862,4.862,0,0,0,105.032,63c-.863-.769-3.595-2.185-1.659-3.642.236-.182.4-.607.108-.836-1.962-1.524-3.669,1.1-3,3a5.54,5.54,0,0,0,2.61,2.6c2.205,1.423,2.34,2.974,2.286,5.449h0c-.148.061-.3.115-.438.182a13.647,13.647,0,0,0-7.816,10.042,6.305,6.305,0,0,0-1.173-1.146c-3.412-2.522-8.2-.169-11.829-1.4.425-2.374.614-4.5,2.4-6.575a47.613,47.613,0,0,1,4.775-4.323c2.893-2.542,5.22-5.4,5.436-9.388.1-1.868-2.873-1.882-2.92,0a8.484,8.484,0,0,1-2.1,5.206A7.283,7.283,0,0,0,89.487,56.5c-2.145-2.1-8.767-2.657-7.789-6.515a1.353,1.353,0,0,0-2.462-1.039c-1.794,2.408,0,5.5,2.252,6.872,1.686,1.018,3.716,1.275,5.4,2.246a7.007,7.007,0,0,1,3.2,5.173.587.587,0,0,0,.263.411c-2.111,2.1-4.674,3.972-6.164,6.373a15.929,15.929,0,0,0-1.942,6.07c-1.43-1.463-1.733-4.046-3.075-5.577a9.644,9.644,0,0,0-3.675-2.6,10.912,10.912,0,0,0-4.289-.8,12.49,12.49,0,0,1-2.185-4.168c-.553-1.962-.3-4.154-2.111-5.429a.8.8,0,0,0-1.187.674,18.816,18.816,0,0,0,1.841,7.857,14.627,14.627,0,0,0,.964,1.619A5.017,5.017,0,0,0,66.18,69.5c-.735,1.093.479,2.138,1.524,1.983,2.812-.411,5.071-1.531,7.756.324a5.247,5.247,0,0,1,1.349,1.349,12.928,12.928,0,0,0-3.453.074c-4.255.553-8.309,2.583-12.49.5s-11.384-8.423-15.511-2.576c-.58.836.587,2.023,1.416,1.416,2.576-1.821,4.977-1.349,7.324-.148a5.4,5.4,0,0,0-2.165,2.7,14.162,14.162,0,0,1-1.052,2.664c-.391.573-.971.89-1.194,1.558a.533.533,0,0,0,.236.587c1.214.917,2.563-.728,2.961-1.76s.513-1.989.931-2.934c.351-.782.823-1.517,1.227-2.279,2.111,1.194,4.188,2.752,6.326,3.48a13.327,13.327,0,0,0,7.074,0c1.753-.391,7.371-2.576,9.4-1.288a10.262,10.262,0,0,0,2.394,3.837,9.307,9.307,0,0,0,5.86,1.868A10.116,10.116,0,0,0,84.18,83.18c-.8,1.349-1.882,3.433-1.3,4.991a1.025,1.025,0,0,0,1.848.243c.8-1.153.789-2.785,1.47-4.046a13.589,13.589,0,0,1,2.859-3.493,1.565,1.565,0,0,0,.142-.169c2.7-.162,6.474-.2,7.492,1.74a23.283,23.283,0,0,0,1.753,12.287c2.07,4.357,6.6,8.019,11.566,6.939-.715,2.468-1.416,4.91-2.252,7.169-.5,1.349-2.414,6.562-2.59,9.441-6.859,2.994-13.178-4.046-20.387-2.306-3.568.877-6.353,3.723-9.947,4.431a8.18,8.18,0,0,1-6.838-1.774,8.571,8.571,0,0,1-.924-.931,3.372,3.372,0,0,1,.674-1.072c.459-.492,1.126-.674,1.551-1.2a.674.674,0,0,0-.472-1.146c-.917-.074-1.726.782-2.232,1.457a5.517,5.517,0,0,0-.4.674,21.466,21.466,0,0,1-1.5-4.525.513.513,0,0,0-.978,0c-1.032,3.7,1.477,7.756,4.626,9.6,4.046,2.347,8.221,1.349,12.139-.674,2.7-1.389,5.22-2.758,8.383-2.219a19.18,19.18,0,0,1,4.087,1.281,9.077,9.077,0,0,0-2.084,2.165,7.83,7.83,0,0,0-1.349,5.334,1.146,1.146,0,1,0,2.259-.3,6.744,6.744,0,0,1,.877-4.222,11.714,11.714,0,0,1,2.084-2.192c.674.277,1.288.553,1.942.8a18.482,18.482,0,0,0,2.212.674,5.53,5.53,0,0,0-.573,5.921c.061.121.128.216.2.33.088,2.745-.674,5.449-4,5.651-1.194.067-2.4,0-3.581.169a6.066,6.066,0,0,1-.553-.277,5.017,5.017,0,0,1-1.49-1.4c-.823-1.241-.883-2.839-1.194-4.255-.236-1.072-1.646-.674-1.767.243a7.162,7.162,0,0,0,1.733,5.651,5.1,5.1,0,0,0,.9.769c-2.7,1.47-3.042,4.539-2.7,7.418.054.492.83.506.782,0a6.086,6.086,0,0,1,.674-4.141c1.4-1.942,3.372-1.511,5.4-1.349,1.861.175,4.046.209,5.705-.863a5.428,5.428,0,0,0,2.374-5.6c2.266,1.079,5.274.62,7.823.715,3.837.142,3.9,3.2,5.058,6.029a7.641,7.641,0,0,0,3.17,3.81c2.151,1.349,4.768,1.726,6.744,3.372,2.077,1.76,2.354,4.046,3.5,6.265a.674.674,0,0,0,1.18-.155c.641-2.981-1.7-6.272-3.952-8.025-3.439-2.7-7.418-2.778-8.814-7.506-.85-2.846-1.8-5.4-4.964-6.184-1.713-.438-3.5-.142-5.24-.2-3.615-.121-5.8-3.453-2.947-5.989a7.951,7.951,0,0,0,5.092-1.5c.364.081.742.148,1.153.229a46.664,46.664,0,0,0,4.91.755c2.131.189,4.282.378,6.427.459a1.045,1.045,0,0,0,.135.216,7.136,7.136,0,0,0,.54.566,3.78,3.78,0,0,1-.094.607,1.686,1.686,0,0,1-2.084.722,25.41,25.41,0,0,1-5.159-.829c-1.983-.432-4.148-.31-5.112,1.78-.067.148,0,.4.223.378,1.288-.162,3.075-.674,4.168-.452.243.047,1.605.674,1.767.708a23.434,23.434,0,0,0,4.815,1.241,7.115,7.115,0,0,0,.344,3.089,24.521,24.521,0,0,1,.944,4.168.735.735,0,0,0,1.221.317c1.288-1.5.614-3.412,0-5.071a9.827,9.827,0,0,1-.519-1.5c-.094-.465.054-1,0-1.45a2.792,2.792,0,0,0,1.443-2.246,30.124,30.124,0,0,1,4.343,2.812c1.571,1.416,2.327,3.055.526,4.62-.8.674-1.713.9-2.367,1.821a4.535,4.535,0,0,0,.074,4.889,16.32,16.32,0,0,0,2.421,2.981A6.328,6.328,0,0,1,129.2,148a.681.681,0,0,0,1.349.182,14.6,14.6,0,0,0-.674-6.326c.89.148,1.807.236,2.657.391a6.825,6.825,0,0,1,2.758.9c.641.425,1.12.985,1.78,1.349a.31.31,0,0,0,.452-.351,5.112,5.112,0,0,0-3.372-3.372,14.4,14.4,0,0,0-3.1-.378c-.641-.047-1.268-.128-1.9-.155a7.206,7.206,0,0,0-.479-.8c-.8-1.153-2.7-2.7-1.126-4.39a8.22,8.22,0,0,1,1.875-.877,4.721,4.721,0,0,0,2.192-2.084,4.889,4.889,0,0,0-.25-4.518,13.98,13.98,0,0,1,3.2,1.221.283.283,0,0,0,.425-.243,3.1,3.1,0,0,0-2.023-2.738,12.1,12.1,0,0,0-3.547-.708,15.417,15.417,0,0,0-4.134-2.752,28.749,28.749,0,0,0,5.476-1.619,10.684,10.684,0,0,0,6.7,2.064c.762,1.4,1.915,2.549,2.023,4.357.169,2.738-2.023,4.545-2.556,7.122a9.954,9.954,0,0,0,.465,5.577c1.173,2.846,4.154,4.242,3.21,7.816a.9.9,0,1,0,1.733.479,6.07,6.07,0,0,0,0-3.493c.094.067.189.135.276.209.674.58.769,1.457,1.349,2.023a.566.566,0,0,0,.937-.25c.351-1.025-.566-2.165-1.308-2.765a4.9,4.9,0,0,0-2.172-1.045c-.229-.344-.479-.674-.769-1.045-1.619-2.023-2.819-4.222-1.76-6.825.674-1.659,2.172-2.785,2.974-4.377a9.409,9.409,0,0,0-.674-8.093c1.747-.364,3.372-1.032,5.166-1.436,3.439-.8,5.631-.034,8.767,1.315.593.25,1.2.479,1.807.674.263,1.976.6,4.444-1.848,4.916a5.753,5.753,0,0,1-2.873-.121,6.66,6.66,0,0,0-2.536-.674.769.769,0,0,0-.533,1.295c1.72,2.07,5.827,2.482,8.093,1.079a4.849,4.849,0,0,0,2.7,2.7c1.524.674,5.4,1.079,5.314-1.5a.533.533,0,0,0-.533-.533c-1.349.115-2.441.674-3.844.162a4.417,4.417,0,0,1-2.34-2.07,5.393,5.393,0,0,0,.088-4.829,10.657,10.657,0,0,0,9.192-1.686,11.194,11.194,0,0,0,.937-.823.634.634,0,0,0,.148-.047,16.482,16.482,0,0,1,3.945-1.207,4.3,4.3,0,0,1,1.855.054c.937.33.674,1.052.722,1.828a.674.674,0,0,0,.816.627c1.059-.189,1.261-1.214,1.153-2.172a3.129,3.129,0,0,0-1.78-2.455,5.667,5.667,0,0,0-4.674.128,8.909,8.909,0,0,0,.4-4.869.337.337,0,1,0-.674,0c-.85,3.527-3.534,7.068-7.182,7.985-4.674,1.173-7.944-2.428-12.254-3.042-3.244-.465-6.218.755-9.286,1.551a8.18,8.18,0,0,1-6.528-.749c-.56-.31-1.1-.674-1.639-.971a13.178,13.178,0,0,0-.452-4.424c-.937-4.316-2.023-8.767-3.372-13.11,3.716-.115,7.324-2.988,9.651-5.584a34.738,34.738,0,0,0,3.716-5.2c3.507-1.821,7.358-1.463,11.235-1.187.9.067,1.848.128,2.8.142.883,1.039,1.888,1.962,1.565,3.493-.243,1.173,1.612,1.639,1.78.486a4.768,4.768,0,0,0-.634-3.278,4.519,4.519,0,0,0-.634-.769,9.725,9.725,0,0,0,5.449-1.942c.843-.674-.067-2.131-1.052-1.807a19.868,19.868,0,0,1-6.2,1.349c-2.138.04-4.262-.223-6.393-.283a17.123,17.123,0,0,0-6.07.776,36.775,36.775,0,0,1,4.181-5.921,22.605,22.605,0,0,1,6.319-4.579c3.035.674,6.13,1,9.192,1.457,3.655.553,8.214,1.6,8.767,5.955.33,2.765-.324,5.159,1.875,7.317,1.4,1.349,3.635,2.333,5.49,1.43a.674.674,0,0,0-.162-1.234c-1.585-.418-3.082-.4-4.262-1.726-1.517-1.693-.89-3.871-1.066-5.914a7.169,7.169,0,0,0-3.109-5.26,9.644,9.644,0,0,0-2.07-1.119c.674-.2,1.295-.452,1.909-.674a12.658,12.658,0,0,1,3.986-1.227c1.747-.081,3.048.951,4.491,1.774,1.976,1.119,4.242,1.78,6.279.4s3.089-4,4.208-5.982a.593.593,0,0,0-.8-.8M117.184,99.737c-.971,7.223-1.753,12.213-.931,19.483-.2,1.457-6.98-.155-7.3-.674-.587-.958-.189-1.585.27-3.217.8-2.859,1.612-5.712,2.408-8.572,1.349-4.937,3.318-10.062,4.1-15.181l.243.054a15.133,15.133,0,0,0,2.347.243c-.384,2.7-.776,5.152-1.14,7.87" transform="translate(-24.975 -29.673)" fill="#ff9f1c"/>
        <path id="Path_113" data-name="Path 113" d="M163.024,168.375a2.873,2.873,0,0,0-.843-1.794.425.425,0,0,0-.708.411,4.161,4.161,0,0,1,.169,1.989c-.081.492.094,1.261.776,1.052s.674-1.113.607-1.659" transform="translate(-62.83 -68.133)" fill="#ff9f1c"/>
        <path id="Path_114" data-name="Path 114" d="M178.636,193.767c-.135-.324-.526-1.032-.971-.674-.283.243-.175.634-.209.958a6.069,6.069,0,0,1-.27,1.153.83.83,0,0,0,.209.8.749.749,0,0,0,.573.236.843.843,0,0,0,.789-.6,2.779,2.779,0,0,0-.121-1.9" transform="translate(-67.942 -76.772)" fill="#ff9f1c"/>
        <path id="Path_115" data-name="Path 115" d="M175.5,175.618c.148-.674.634-1.207.674-1.882a.587.587,0,0,0-.742-.566,2.589,2.589,0,0,0-1.261,2.3,4.161,4.161,0,0,0,.8,2.7c.216.317.816.135.674-.277a3.8,3.8,0,0,1-.121-2.259" transform="translate(-66.965 -70.31)" fill="#ff9f1c"/>
        <path id="Path_116" data-name="Path 116" d="M196.917,157.646c-.465-.674-1.248-.634-2.023-.587a4.363,4.363,0,0,0-2.023.56.317.317,0,0,0,.074.566c.627.108,1.275.175,1.9.3s1.187.465,1.834.121a.708.708,0,0,0,.25-.964" transform="translate(-73.011 -65.064)" fill="#ff9f1c"/>
        <path id="Path_117" data-name="Path 117" d="M200.7,183.7c-.492-.6-1.47.047-1.268.735a5.543,5.543,0,0,1,.263,1.989,5.55,5.55,0,0,0-.189,1.875.674.674,0,0,0,1.018.418c.89-.378,1.1-1.558,1.113-2.421a3.77,3.77,0,0,0-.937-2.6" transform="translate(-75.187 -73.667)" fill="#ff9f1c"/>
        <path id="Path_118" data-name="Path 118" d="M201.8,43.85c-2.7,0-2.7,4.228,0,4.228s2.7-4.228,0-4.228" transform="translate(-75.307 -28.21)" fill="#ff9f1c"/>
        <path id="Path_119" data-name="Path 119" d="M219.268,46.06c-3.068,0-3.075,4.768,0,4.768s3.075-4.768,0-4.768" transform="translate(-80.903 -28.929)" fill="#ff9f1c"/>
        <path id="Path_120" data-name="Path 120" d="M172.795,42.046a3.231,3.231,0,0,0-.83-1.423l-.674-.506a3.21,3.21,0,0,0-1.625-.438,2.407,2.407,0,0,0-1.248.277,2.381,2.381,0,0,0-1.039.674,2.34,2.34,0,0,0-.674,1.039,2.381,2.381,0,0,0-.277,1.241l.115.856a3.291,3.291,0,0,0,.829,1.43l.674.5a3.156,3.156,0,0,0,1.632.445,2.462,2.462,0,0,0,1.241-.277,2.509,2.509,0,0,0,1.039-.674,3.535,3.535,0,0,0,.951-2.286c-.04-.283-.074-.573-.115-.856" transform="translate(-64.447 -26.85)" fill="#ff9f1c"/>
        <path id="Path_121" data-name="Path 121" d="M67.714,95.85c-2.886,0-2.893,4.491,0,4.491s2.893-4.491,0-4.491" transform="translate(-31.6 -45.141)" fill="#ff9f1c"/>
        <path id="Path_122" data-name="Path 122" d="M242.705,67c-3.217,0-3.217,5,0,5s3.217-5,0-5" transform="translate(-88.499 -35.748)" fill="#ff9f1c"/>
        <path id="Path_123" data-name="Path 123" d="M250.83,103.27a1.461,1.461,0,0,0,0,2.92,1.461,1.461,0,0,0,0-2.92" transform="translate(-91.471 -47.557)" fill="#ff9f1c"/>
        <path id="Path_124" data-name="Path 124" d="M41.719,91.081a2.212,2.212,0,0,0-.553-.978l-.452-.351a2.178,2.178,0,0,0-1.119-.3,1.619,1.619,0,0,0-.856.2,2.023,2.023,0,0,0-1.173,1.173,1.639,1.639,0,0,0-.2.856l.081.593a2.151,2.151,0,0,0,.573.978l.445.351a2.273,2.273,0,0,0,1.126.3,1.706,1.706,0,0,0,.856-.2A2.023,2.023,0,0,0,41.6,92.518a1.706,1.706,0,0,0,.2-.856l-.081-.593" transform="translate(-22.425 -43.056)" fill="#ff9f1c"/>
        <path id="Path_125" data-name="Path 125" d="M61.869,60.26a2.516,2.516,0,0,0-.674-1.119l-.513-.4A2.515,2.515,0,0,0,59.4,58.4a1.942,1.942,0,0,0-.978.216,2.3,2.3,0,0,0-1.349,1.349,1.875,1.875,0,0,0-.216.978,5.769,5.769,0,0,0,.088.674,2.515,2.515,0,0,0,.674,1.119l.513.4a2.6,2.6,0,0,0,1.281.351,1.882,1.882,0,0,0,.978-.223,2.3,2.3,0,0,0,1.349-1.349,1.875,1.875,0,0,0,.216-.978,5.767,5.767,0,0,0-.088-.674" transform="translate(-28.77 -32.946)" fill="#ff9f1c"/>
        <path id="Path_126" data-name="Path 126" d="M45.337,67.2a2.273,2.273,0,0,0-.58-.991L44.3,65.85a2.306,2.306,0,0,0-1.133-.31,1.726,1.726,0,0,0-.863.2,1.693,1.693,0,0,0-.722.465,1.632,1.632,0,0,0-.465.722,1.753,1.753,0,0,0-.2.87l.081.593a2.313,2.313,0,0,0,.58.991l.452.351a2.306,2.306,0,0,0,1.133.31,1.753,1.753,0,0,0,.87-.2,1.693,1.693,0,0,0,.722-.465,1.753,1.753,0,0,0,.465-.722,1.672,1.672,0,0,0,.189-.863,4.422,4.422,0,0,0-.074-.6" transform="translate(-23.581 -35.272)" fill="#ff9f1c"/>
        <path id="Path_127" data-name="Path 127" d="M265.91,82.33c-3.008,0-3.015,4.674,0,4.674s3.015-4.674,0-4.674" transform="translate(-96.104 -40.739)" fill="#ff9f1c"/>
        <path id="Path_128" data-name="Path 128" d="M257.416,59.9a2.583,2.583,0,0,0-.674-1.173l-.533-.411a2.7,2.7,0,0,0-1.349-.364,2.023,2.023,0,0,0-1.018.229,2.4,2.4,0,0,0-1.4,1.4,2.023,2.023,0,0,0-.229,1.018l.094.674a2.7,2.7,0,0,0,.674,1.167l.533.418a2.657,2.657,0,0,0,1.349.357,2.023,2.023,0,0,0,1.025-.223,2.448,2.448,0,0,0,1.4-1.4,2.064,2.064,0,0,0,.229-1.025l-.1-.674" transform="translate(-92.378 -32.8)" fill="#ff9f1c"/>
        <path id="Path_129" data-name="Path 129" d="M207.472,29.931a1.625,1.625,0,0,0-.263-.816l-.344-.445a2.151,2.151,0,0,0-.971-.566,1.841,1.841,0,0,0-1.173,0l-.526.223a2.51,2.51,0,0,0-1.012,1.315,5.816,5.816,0,0,1-.074.587,2.463,2.463,0,0,0,.641,1.551l.445.344a2.158,2.158,0,0,0,1.113.3l.587-.081a1.672,1.672,0,0,0,.749-.391,1.733,1.733,0,0,0,.566-.62l.223-.526a1.754,1.754,0,0,0,.04-.877" transform="translate(-76.391 -23.051)" fill="#ff9f1c"/>
        <path id="Path_130" data-name="Path 130" d="M273.41,106.675a2.987,2.987,0,0,0-.755-1.3l-.593-.459a3.028,3.028,0,0,0-1.49-.4,3.291,3.291,0,0,0-2.077.863,3.332,3.332,0,0,0-.863,2.084c.034.256.067.519.108.782a2.866,2.866,0,0,0,.755,1.295l.593.465a2.947,2.947,0,0,0,1.484.4,2.28,2.28,0,0,0,1.14-.25,2.225,2.225,0,0,0,.944-.614,2.117,2.117,0,0,0,.607-.944,2.192,2.192,0,0,0,.256-1.133Z" transform="translate(-97.4 -47.961)" fill="#ff9f1c"/>
        <path id="Path_131" data-name="Path 131" d="M281.1,97.788a2.158,2.158,0,0,0-.56-.958l-.438-.344a2.165,2.165,0,0,0-1.1-.3,2.091,2.091,0,0,0-1.989,1.349,1.558,1.558,0,0,0-.189.836,4.136,4.136,0,0,0,.074.58,2.246,2.246,0,0,0,.56.964l.445.337a2.084,2.084,0,0,0,1.1.3,1.618,1.618,0,0,0,.836-.182,1.659,1.659,0,0,0,.674-.452,1.6,1.6,0,0,0,.452-.674,1.645,1.645,0,0,0,.189-.843l-.081-.58" transform="translate(-100.394 -45.252)" fill="#ff9f1c"/>
        <path id="Path_132" data-name="Path 132" d="M262.392,96.68a1.841,1.841,0,0,0-2.6,0,1.4,1.4,0,0,0-.378.587,1.443,1.443,0,0,0-.162.715,1.875,1.875,0,0,0,.539,1.3,1.841,1.841,0,0,0,2.6,0,1.349,1.349,0,0,0,.384-.593,1.436,1.436,0,0,0,.162-.674,1.875,1.875,0,0,0-.546-1.3" transform="translate(-94.671 -45.236)" fill="#ff9f1c"/>
        <path id="Path_133" data-name="Path 133" d="M65.109,153.673c-2.913-.189-4.37-2.752-6.3-4.532a15.511,15.511,0,0,0-4.343-2.819c-2.293-.985-7.5-2.509-9.3-.162a.614.614,0,0,0,.2.836c1.349.9,3.433.216,5.038.472a14.837,14.837,0,0,1,5.415,1.942c-2.252.546-3.372,4.471-2.853,6.454,1.167,4.586,7.681,5.22,8.309,10.278a.438.438,0,0,0,.728.3c2.279-1.787-.715-4.721-2.023-6.07-1.2-1.194-2.657-2.118-3.831-3.331a4.417,4.417,0,0,1,.964-6.744c2.482,2.023,4.552,5.1,8.093,4.168a.4.4,0,0,0-.108-.8" transform="translate(-24.935 -61.119)" fill="#ff9f1c"/>
        <path id="Path_134" data-name="Path 134" d="M99.045,186.5a7.122,7.122,0,0,1-.769-.715,1.861,1.861,0,0,1-.33-.971.587.587,0,0,0-1.167,0,2.854,2.854,0,0,0,1.639,2.792.674.674,0,0,0,.674-1.106" transform="translate(-41.769 -73.939)" fill="#ff9f1c"/>
        <path id="Path_135" data-name="Path 135" d="M115.871,193.226c-.216-.715-1.025-1.093-1.443-1.72s-.486-1.4-.89-2.023a3.008,3.008,0,0,0,.229-2.576c-.277-.553-1.012-.31-1.194.162a17.318,17.318,0,0,0-.243,1.929,4.72,4.72,0,0,1-1,1.888.477.477,0,1,0,.674.674,6.74,6.74,0,0,0,.6-.627,6.515,6.515,0,0,0,.486,1.214c.4.776,1.16,1.962,2.118,1.949a.674.674,0,0,0,.674-.883" transform="translate(-46.463 -74.687)" fill="#ff9f1c"/>
        <path id="Path_136" data-name="Path 136" d="M255.82,148.864c-2.023,2.515-5.436,1.16-7.863,3.021a12.941,12.941,0,0,0-2.192,2.617c-1.349,1.841-2.772,2.367-4.964,2.88a.452.452,0,0,0,0,.87c2.381.816,3.965-.324,5.361-1.807,1.119-.378,2.5.25,2.084,1.679a20.74,20.74,0,0,0-.9,2.327c-.175,1.066.175,2.549,1.409,2.7a.8.8,0,0,0,.769-1.315c-.843-1.025.169-1.983.445-3.048a3.217,3.217,0,0,0-.432-2.7,2.765,2.765,0,0,0-2.023-1.214c.256-.3.513-.593.776-.863,2.408-2.5,7.553-.526,8.969-4.309.3-.8-.924-1.531-1.463-.85" transform="translate(-88.557 -62.311)" fill="#ff9f1c"/>
        <path id="Path_137" data-name="Path 137" d="M243.788,169.089a3.291,3.291,0,0,0-1.436-1.686c-.58-.33-1.275.492-.735.958a2.313,2.313,0,0,1,.769,1.861c0,.378,0,.816.364,1.039a.674.674,0,0,0,.742-.054c.62-.445.54-1.5.3-2.118" transform="translate(-88.866 -68.415)" fill="#ff9f1c"/>
        <path id="Path_138" data-name="Path 138" d="M17.092,140.153l1.868,1.133,1.942,1.146,1.726.991c.533.29.951.519,1.254.674l-1.153-4a1.349,1.349,0,0,1,0-1,1.032,1.032,0,0,1,.674-.492,1.834,1.834,0,0,1,.674-.081,2.28,2.28,0,0,1,.465.061l1.929,6.676a1.74,1.74,0,0,1,0,1.113,1.032,1.032,0,0,1-.742.62,1.639,1.639,0,0,1-1.032-.047,11.508,11.508,0,0,1-1.119-.486q-1.032-.526-2.387-1.275c-.9-.492-1.9-1.072-2.994-1.726l1.592,5.206-2.1.607-2.475-8.572Z" transform="translate(-15.21 -59.036)" fill="#ff9f1c"/>
        <path id="Path_139" data-name="Path 139" d="M23.084,155.619a3.506,3.506,0,0,0-.034.452,6.48,6.48,0,0,0,.04.83,9,9,0,0,0,.2,1.092,7.371,7.371,0,0,0,.425,1.268,4.572,4.572,0,0,0,.452.823,1.72,1.72,0,0,0,.4.418.614.614,0,0,0,.364.108.883.883,0,0,0,.324-.081.674.674,0,0,0,.391-.486,2.516,2.516,0,0,0-.115-1.106l-.371-1.47a8.3,8.3,0,0,1-.216-1.18,3.682,3.682,0,0,1,.04-1.16,2.5,2.5,0,0,1,.452-1.025,2.421,2.421,0,0,1,1.025-.769,2.927,2.927,0,0,1,1.207-.263,2.643,2.643,0,0,1,1.214.3,3.824,3.824,0,0,1,1.133.91,6.171,6.171,0,0,1,.964,1.585,10.191,10.191,0,0,1,.465,1.248,7.135,7.135,0,0,1,.223.971,5.247,5.247,0,0,1,.067.674,3.036,3.036,0,0,1,0,.411,1.74,1.74,0,0,1-.162.593.823.823,0,0,1-.438.438,1.2,1.2,0,0,1-.452.108,1.984,1.984,0,0,1-.452-.034,1.828,1.828,0,0,1-.4-.121l-.283-.142a2.913,2.913,0,0,0,.108-.533,4.114,4.114,0,0,0,0-.769,7.021,7.021,0,0,0-.162-.951,5.922,5.922,0,0,0-.364-1.072,3.655,3.655,0,0,0-.452-.789,1.409,1.409,0,0,0-.4-.371.621.621,0,0,0-.364-.081.9.9,0,0,0-.3.081.728.728,0,0,0-.209.128.512.512,0,0,0-.128.25,1.713,1.713,0,0,0,0,.438,4.855,4.855,0,0,0,.121.674l.357,1.538a8.767,8.767,0,0,1,.229,1.47,3.891,3.891,0,0,1-.094,1.187,2.2,2.2,0,0,1-.486.91,2.886,2.886,0,0,1-.958.674,2.657,2.657,0,0,1-2.563-.121,5.5,5.5,0,0,1-2.07-2.63,9.246,9.246,0,0,1-.56-1.659A11.242,11.242,0,0,1,20.98,157a10.332,10.332,0,0,1-.04-1.045,2.286,2.286,0,0,1,.054-.513Zm8.99-2.5,1.079.256-.128,2.138,1.666,1.349-.54.971-1.443-.91c-.155-.094-.324-.209-.513-.351a1.241,1.241,0,0,1-.418-.506,1.275,1.275,0,0,1-.094-.641,3.119,3.119,0,0,1,.088-.62Z" transform="translate(-17.075 -63.773)" fill="#ff9f1c"/>
        <path id="Path_140" data-name="Path 140" d="M37.327,171.454a1.282,1.282,0,0,1,.553-.243.9.9,0,0,1,.486.034,1.261,1.261,0,0,1,.425.236,2.9,2.9,0,0,1,.364.391,2.7,2.7,0,0,1,.459.856,2.131,2.131,0,0,1,.1.58c-.337.674-.674,1.436-1.093,2.219s-.749,1.544-1.1,2.279l2.212-.384c.722-.128,1.409-.256,2.023-.384a1.659,1.659,0,0,1,1.059.047,1.956,1.956,0,0,1,.728.593,3.149,3.149,0,0,1,.472.863,2.543,2.543,0,0,1,.135.566l-7.027,6.029-1.45-1.935,4.377-3.736-1.173.209-1.187.229-1.1.229-.931.2-1.1-1.45c.142-.236.29-.519.465-.85s.351-.674.533-1.039.364-.722.54-1.092l.479-1-4.768,3.21-1.49-1.969Z" transform="translate(-20.13 -69.673)" fill="#ff9f1c"/>
        <path id="Path_141" data-name="Path 141" d="M47.676,189.068a4.66,4.66,0,0,1,1.639-1.207,4.93,4.93,0,0,1,1.929-.432,5.354,5.354,0,0,1,2.023.351,5.948,5.948,0,0,1,3.183,2.846,5.341,5.341,0,0,1,.573,1.949,4.869,4.869,0,0,1-.216,1.962A4.775,4.775,0,0,1,55.8,196.3a4.876,4.876,0,0,1-1.639,1.207,4.93,4.93,0,0,1-1.956.425,5.4,5.4,0,0,1-2.023-.351A5.948,5.948,0,0,1,47,194.733a5.463,5.463,0,0,1-.566-1.949,4.862,4.862,0,0,1,.209-1.962,4.721,4.721,0,0,1,1.018-1.76m2.131,5.759a3.062,3.062,0,0,0,1,.607,2.7,2.7,0,0,0,1.086.148,2.914,2.914,0,0,0,1.045-.283,3.156,3.156,0,0,0,1.517-1.7,2.832,2.832,0,0,0,.189-1.059,2.7,2.7,0,0,0-.276-1.059,3.17,3.17,0,0,0-1.72-1.538,2.7,2.7,0,0,0-2.131.128,3.048,3.048,0,0,0-.917.715,2.878,2.878,0,0,0-.769,2.057,2.859,2.859,0,0,0,.27,1.066,3.1,3.1,0,0,0,.722.931" transform="translate(-25.367 -74.96)" fill="#ff9f1c"/>
        <path id="Path_142" data-name="Path 142" d="M63.545,197.583a1.281,1.281,0,0,1,.418-.445.964.964,0,0,1,.465-.148,1.268,1.268,0,0,1,.465.074,2.023,2.023,0,0,1,.438.216,2.131,2.131,0,0,1,.62.553,2.252,2.252,0,0,1,.223.384,2.333,2.333,0,0,0,.061.519,7.3,7.3,0,0,1,.067,1.025c.02.4.047.85.067,1.349s.04.958.061,1.416,0,.89.047,1.281a6.245,6.245,0,0,1,0,.944l2.489-3.891a.883.883,0,0,1,.728-.486,1.632,1.632,0,0,1,.9.3,2.644,2.644,0,0,1,.573.486l.27.317-5.024,7.9-1.936-1.234v-1.909c0-.432,0-.89-.04-1.349s0-.978-.047-1.45,0-.924-.047-1.349-.04-.782-.054-1.079l-3.271,4.95L59,204.658Z" transform="translate(-29.468 -78.073)" fill="#ff9f1c"/>
        <path id="Path_143" data-name="Path 143" d="M80.743,207.6l-2.111-1a1.349,1.349,0,0,1-.749-.674,1.039,1.039,0,0,1,.081-.836,2.023,2.023,0,0,1,.4-.58,2.821,2.821,0,0,1,.351-.3L86,207.663a1.349,1.349,0,0,1,.749.674,1.052,1.052,0,0,1-.081.843,2.023,2.023,0,0,1-.4.573,2.326,2.326,0,0,1-.351.3l-2.961-1.4L79.772,215.4l-2.212-1.045Z" transform="translate(-35.512 -80.424)" fill="#ff9f1c"/>
        <path id="Path_144" data-name="Path 144" d="M91.2,212.052a1.235,1.235,0,0,1,1.807-.776l4.721,1.679a1.349,1.349,0,0,1,.816.58,1.052,1.052,0,0,1,0,.836,1.848,1.848,0,0,1-.344.62,2.783,2.783,0,0,1-.317.337l-4.66-1.659-.506,1.416,3.6,1.281a1.349,1.349,0,0,1,.809.573,1.039,1.039,0,0,1,0,.843,2.023,2.023,0,0,1-.344.614,2.906,2.906,0,0,1-.324.344l-4.478-1.592-.519,1.463,4.876,1.733-.735,2.064-7.176-2.549Z" transform="translate(-39.051 -82.682)" fill="#ff9f1c"/>
        <path id="Path_145" data-name="Path 145" d="M103.667,222.144a2.083,2.083,0,0,0,.324.31,7.29,7.29,0,0,0,.674.479,8.69,8.69,0,0,0,.985.526,7.02,7.02,0,0,0,1.254.452,4.222,4.222,0,0,0,.924.162,1.775,1.775,0,0,0,.58-.061.573.573,0,0,0,.31-.216.89.89,0,0,0,.142-.3.674.674,0,0,0-.135-.607,2.536,2.536,0,0,0-.944-.6l-1.349-.62a9,9,0,0,1-1.066-.566,3.844,3.844,0,0,1-.883-.749,2.542,2.542,0,0,1-.519-.991,2.441,2.441,0,0,1,0-1.281,2.961,2.961,0,0,1,.546-1.113,2.637,2.637,0,0,1,.985-.762,3.777,3.777,0,0,1,1.423-.324,5.983,5.983,0,0,1,1.834.229,9.444,9.444,0,0,1,1.268.4,8.226,8.226,0,0,1,.9.432,5.564,5.564,0,0,1,.587.384,3.4,3.4,0,0,1,.317.27,2.171,2.171,0,0,1,.364.492.829.829,0,0,1,.067.62,1.133,1.133,0,0,1-.2.418,2.447,2.447,0,0,1-.3.337,2.09,2.09,0,0,1-.344.236,2.48,2.48,0,0,1-.29.135,2.659,2.659,0,0,0-.351-.418,3.278,3.278,0,0,0-.6-.479,6.369,6.369,0,0,0-.843-.472,6.581,6.581,0,0,0-1.066-.378,3.434,3.434,0,0,0-.9-.135,1.437,1.437,0,0,0-.546.088.607.607,0,0,0-.29.236,1.281,1.281,0,0,0-.128.283.755.755,0,0,0,0,.243.432.432,0,0,0,.115.256,1.477,1.477,0,0,0,.33.29,4.84,4.84,0,0,0,.627.344l1.43.674a8.768,8.768,0,0,1,1.295.735,3.756,3.756,0,0,1,.87.809,2.212,2.212,0,0,1,.411.951,2.88,2.88,0,0,1-.081,1.153,2.7,2.7,0,0,1-1.693,1.935,5.435,5.435,0,0,1-3.372,0,9.632,9.632,0,0,1-1.652-.587,10.688,10.688,0,0,1-1.268-.674,9.037,9.037,0,0,1-.843-.614,2.5,2.5,0,0,1-.364-.357Z" transform="translate(-43.538 -84.223)" fill="#ff9f1c"/>
        <path id="Path_146" data-name="Path 146" d="M118.639,225.695a3.616,3.616,0,0,0,.351.283,6.6,6.6,0,0,0,.715.432,9.886,9.886,0,0,0,1.012.452,7.524,7.524,0,0,0,1.295.357,4.72,4.72,0,0,0,.931.088,1.524,1.524,0,0,0,.566-.1.58.58,0,0,0,.3-.243.876.876,0,0,0,.121-.31.674.674,0,0,0-.182-.6,2.6,2.6,0,0,0-.985-.526l-1.423-.513a8.771,8.771,0,0,1-1.1-.486,3.8,3.8,0,0,1-.944-.674,2.61,2.61,0,0,1-.593-.951,2.435,2.435,0,0,1-.061-1.281,2.994,2.994,0,0,1,.459-1.146,2.637,2.637,0,0,1,.924-.836,3.777,3.777,0,0,1,1.4-.425,6.07,6.07,0,0,1,1.848.088,9.171,9.171,0,0,1,1.295.31,8.53,8.53,0,0,1,.931.357,5.138,5.138,0,0,1,.614.344,3.037,3.037,0,0,1,.337.243,2.117,2.117,0,0,1,.4.465.823.823,0,0,1,.121.614,1.349,1.349,0,0,1-.169.432,2.542,2.542,0,0,1-.283.357,1.975,1.975,0,0,1-.324.263,2.57,2.57,0,0,1-.276.155,2.777,2.777,0,0,0-.378-.391,3.829,3.829,0,0,0-.634-.432,6.743,6.743,0,0,0-.877-.4,6.458,6.458,0,0,0-1.093-.3,3.951,3.951,0,0,0-.91-.074,1.382,1.382,0,0,0-.533.135.621.621,0,0,0-.27.256,1.134,1.134,0,0,0-.108.3.931.931,0,0,0,0,.236.486.486,0,0,0,.135.25,1.882,1.882,0,0,0,.351.263,5.871,5.871,0,0,0,.674.3l1.477.566a9.035,9.035,0,0,1,1.349.634,3.764,3.764,0,0,1,.924.749,2.212,2.212,0,0,1,.486.91,2.758,2.758,0,0,1,0,1.153,2.7,2.7,0,0,1-1.538,2.064,5.469,5.469,0,0,1-3.331.236,9.178,9.178,0,0,1-1.693-.465,11.182,11.182,0,0,1-1.349-.6,8.769,8.769,0,0,1-.883-.553,2.117,2.117,0,0,1-.4-.33Z" transform="translate(-48.455 -85.298)" fill="#ff9f1c"/>
        <path id="Path_147" data-name="Path 147" d="M133.619,226.1a4.869,4.869,0,0,1,.674-1.935,4.991,4.991,0,0,1,1.349-1.463,5.618,5.618,0,0,1,1.834-.87,6,6,0,0,1,4.249.486,5.462,5.462,0,0,1,1.592,1.261,4.862,4.862,0,0,1-.843,7.149,5.4,5.4,0,0,1-1.861.87,5.989,5.989,0,0,1-4.242-.486,5.462,5.462,0,0,1-1.592-1.261,4.984,4.984,0,0,1-.958-1.726,4.72,4.72,0,0,1-.189-2.023m5.065,3.473a3.062,3.062,0,0,0,1.173-.088,2.576,2.576,0,0,0,.971-.506,2.7,2.7,0,0,0,.674-.836,2.954,2.954,0,0,0,.344-1.106,3.015,3.015,0,0,0-.081-1.16,2.738,2.738,0,0,0-.486-.971,2.657,2.657,0,0,0-.836-.674,2.981,2.981,0,0,0-1.119-.344,2.94,2.94,0,0,0-1.173.081,2.765,2.765,0,0,0-.971.5,2.7,2.7,0,0,0-.674.836,3.156,3.156,0,0,0-.263,2.266,2.859,2.859,0,0,0,.486.971,2.59,2.59,0,0,0,.836.674,3.116,3.116,0,0,0,1.119.351" transform="translate(-53.758 -86.1)" fill="#ff9f1c"/>
        <path id="Path_148" data-name="Path 148" d="M152.633,224.291a1.558,1.558,0,0,1,.1-.533,1.113,1.113,0,0,1,.243-.364,1.046,1.046,0,0,1,.324-.216,1.463,1.463,0,0,1,.378-.088.953.953,0,0,0,.344-.047,4.586,4.586,0,0,1,.5-.034h1.78a7.418,7.418,0,0,1,2.185.337,4.006,4.006,0,0,1,1.389.776,2.7,2.7,0,0,1,.728,1.086,3.527,3.527,0,0,1,.189,1.248,3.19,3.19,0,0,1-.411,1.524,2.758,2.758,0,0,1-1.234,1.079c.142.223.3.492.465.8l.519.964c.182.337.357.674.533,1.045s.337.708.492,1.052l-2.792-.081-.25-.593-.425-.937c-.162-.337-.33-.674-.5-.985s-.317-.58-.438-.762a2.892,2.892,0,0,1-.418,0H155.04a.619.619,0,0,1-.175,0l-.094,3.251-2.381-.067Zm2.293,3.2h.121l.229.04h.931a4.24,4.24,0,0,0,1.039-.074,1.68,1.68,0,0,0,.634-.263.843.843,0,0,0,.317-.4,1.43,1.43,0,0,0,.094-.465,1.349,1.349,0,0,0-.061-.459.911.911,0,0,0-.283-.438,1.834,1.834,0,0,0-.641-.344,4.3,4.3,0,0,0-1.133-.061,7.971,7.971,0,0,0-.809,0h-.378Z" transform="translate(-59.877 -86.546)" fill="#ff9f1c"/>
        <path id="Path_149" data-name="Path 149" d="M168.2,232.877l-.277-8.578a.883.883,0,0,1,.324-.816,1.652,1.652,0,0,1,.91-.263,2.9,2.9,0,0,1,.755.074l.425.115.3,9.388Z" transform="translate(-64.933 -86.613)" fill="#ff9f1c"/>
        <path id="Path_150" data-name="Path 150" d="M182.247,228.454a1.962,1.962,0,0,1,.061-.8,1.881,1.881,0,0,1,.364-.674,2.131,2.131,0,0,1,.6-.519,2.266,2.266,0,0,1,1.659-.209,2.077,2.077,0,0,1,.674.351,1.949,1.949,0,0,1,.519.58,1.9,1.9,0,0,1,.256.755,1.942,1.942,0,0,1-.061.789,2.1,2.1,0,0,1-.357.674,2.185,2.185,0,0,1-.593.513,2.286,2.286,0,0,1-.809.263,2.1,2.1,0,0,1-.85-.054,2.144,2.144,0,0,1-.715-.351,1.942,1.942,0,0,1-.776-1.349" transform="translate(-69.59 -87.579)" fill="#ff9f1c"/>
        <path id="Path_151" data-name="Path 151" d="M197.512,220.588a1.559,1.559,0,0,1-.054-.54,1.126,1.126,0,0,1,.128-.418.964.964,0,0,1,.236-.263,1.72,1.72,0,0,1,.337-.2l.317-.142.465-.175.674-.223c.27-.081.607-.175,1-.277a7.074,7.074,0,0,1,2.192-.29,4.046,4.046,0,0,1,1.558.371,2.61,2.61,0,0,1,1.012.85,3.488,3.488,0,0,1,.546,1.153,3.587,3.587,0,0,1,.108,1.349,2.657,2.657,0,0,1-.479,1.221,3.682,3.682,0,0,1-1.126,1.012,6.88,6.88,0,0,1-1.841.749l-.5.115-.445.088a3.069,3.069,0,0,1-.337.054h-.182l.8,3.028-2.306.607Zm3.143,2.542.357-.047a6.469,6.469,0,0,0,.823-.182,4.046,4.046,0,0,0,1.025-.391,1.686,1.686,0,0,0,.546-.472.978.978,0,0,0,.189-.506,1.35,1.35,0,0,0-.047-.492,1.478,1.478,0,0,0-.182-.432.931.931,0,0,0-.384-.351,1.653,1.653,0,0,0-.674-.162,4.047,4.047,0,0,0-1.119.155c-.33.088-.593.169-.8.236s-.33.115-.378.135Z" transform="translate(-74.55 -84.933)" fill="#ff9f1c"/>
        <path id="Path_152" data-name="Path 152" d="M213.31,225.033V223.05c0-.755.047-1.551.074-2.4s.067-1.72.115-2.61.094-1.753.148-2.59a1.875,1.875,0,0,1,.324-1.032,2.124,2.124,0,0,1,.9-.607,2.024,2.024,0,0,1,.479-.121,2.7,2.7,0,0,1,.452-.034,1.584,1.584,0,0,1,.337,0h.169c.216.169.533.445.937.823s.856.823,1.349,1.308,1,.991,1.538,1.531,1.032,1.045,1.5,1.531l1.234,1.288.755.816-2.482,1.025-.674-.715c-.236-.263-.526-.573-.856-.924l-3.965,1.544v2.226Zm4.768-6.366-.62-.674-.674-.715-.607-.641q-.27-.283-.425-.425v3.372Z" transform="translate(-79.713 -83.497)" fill="#ff9f1c"/>
        <path id="Path_153" data-name="Path 153" d="M225.452,210.29a1.4,1.4,0,0,1-.182-.506,1.173,1.173,0,0,1,0-.438.991.991,0,0,1,.169-.351,1.733,1.733,0,0,1,.276-.27l.276-.216c.108-.081.243-.175.411-.283l.62-.384.91-.519a7.627,7.627,0,0,1,2.023-.823,3.871,3.871,0,0,1,1.592,0,2.637,2.637,0,0,1,1.18.56,3.372,3.372,0,0,1,.8.978,3.19,3.19,0,0,1,.425,1.517,2.745,2.745,0,0,1-.513,1.558c.236.128.506.277.8.452l.937.566c.33.2.674.411.991.627l.964.674-2.448,1.349-.519-.384c-.25-.182-.533-.378-.843-.587s-.62-.411-.931-.6-.566-.337-.762-.432a2.84,2.84,0,0,1-.351.229l-.391.216-.216.108-.283.142-.263.128-.162.067,1.571,2.846L229.5,217.6Zm3.595,1.585.115-.047.216-.081.337-.162.492-.27a4.237,4.237,0,0,0,.856-.587,1.774,1.774,0,0,0,.411-.553.89.89,0,0,0,.074-.5,1.437,1.437,0,0,0-.155-.452,1.469,1.469,0,0,0-.283-.364.944.944,0,0,0-.472-.229,1.713,1.713,0,0,0-.728.034,3.951,3.951,0,0,0-1.045.432,5.855,5.855,0,0,0-.674.411l-.31.209Z" transform="translate(-83.6 -81.143)" fill="#ff9f1c"/>
        <path id="Path_154" data-name="Path 154" d="M238.4,202.536a1.4,1.4,0,0,1-.243-.479,1.215,1.215,0,0,1-.04-.432.863.863,0,0,1,.121-.371,1.794,1.794,0,0,1,.236-.31,7.42,7.42,0,0,1,.593-.566,15.453,15.453,0,0,1,1.234-.978,8.917,8.917,0,0,1,2.172-1.214,5.4,5.4,0,0,1,2.077-.357,4.248,4.248,0,0,1,1.9.526,4.93,4.93,0,0,1,1.6,1.443,5.065,5.065,0,0,1,.931,1.922,4.046,4.046,0,0,1,0,1.949,5.4,5.4,0,0,1-.985,1.942,9.556,9.556,0,0,1-1.962,1.875,19.59,19.59,0,0,1-1.949,1.349c-.411.236-.634.391-.674.4Zm5.719,3.6.33-.2c.169-.108.364-.25.593-.418a4.916,4.916,0,0,0,.971-.924,2.778,2.778,0,0,0,.526-1.018,2.238,2.238,0,0,0,0-1.1,3.156,3.156,0,0,0-.566-1.153,3.19,3.19,0,0,0-.829-.8,2.34,2.34,0,0,0-1-.378,2.657,2.657,0,0,0-1.133.108,4.114,4.114,0,0,0-1.248.674,5.9,5.9,0,0,0-.674.54c-.135.135-.243.209-.263.236Z" transform="translate(-87.789 -78.346)" fill="#ff9f1c"/>
        <path id="Path_155" data-name="Path 155" d="M250.992,191.421a.89.89,0,0,1-.317-.823,1.618,1.618,0,0,1,.492-.809,2.766,2.766,0,0,1,.607-.459l.384-.2,3.433,3.487a4.99,4.99,0,0,0,.863.722,2.125,2.125,0,0,0,.83.324,1.625,1.625,0,0,0,.829-.121,3.372,3.372,0,0,0,1.49-1.463,1.626,1.626,0,0,0,.128-.829,2.023,2.023,0,0,0-.31-.836,5.357,5.357,0,0,0-.674-.87l-2.866-2.907a.9.9,0,0,1-.31-.823,1.639,1.639,0,0,1,.492-.809,2.57,2.57,0,0,1,.607-.459l.384-.2,3.6,3.655a4.505,4.505,0,0,1,1.477,3.21,5.557,5.557,0,0,1-4.9,4.822,4.451,4.451,0,0,1-3.183-1.531Z" transform="translate(-91.876 -73.954)" fill="#ff9f1c"/>
        <path id="Path_156" data-name="Path 156" d="M262.743,180.234a1.517,1.517,0,0,1-.364-.4,1.052,1.052,0,0,1-.148-.411.959.959,0,0,1,0-.391,1.349,1.349,0,0,1,.148-.357l.169-.3c.067-.115.155-.256.27-.418s.25-.371.425-.6.378-.506.634-.829a9.939,9.939,0,0,1,1.551-1.632,4.046,4.046,0,0,1,1.349-.749,2.124,2.124,0,0,1,1.14-.034,2.9,2.9,0,0,1,.991.513,2.428,2.428,0,0,1,.533.56,2.4,2.4,0,0,1,.3.587,1.97,1.97,0,0,1,.115.566,2.065,2.065,0,0,1,0,.506,2.523,2.523,0,0,1,.506-.236,2.157,2.157,0,0,1,.634-.115,2.3,2.3,0,0,1,.722.1,2.408,2.408,0,0,1,.769.418,3.156,3.156,0,0,1,.8.89,2.023,2.023,0,0,1,.256,1.146,4.181,4.181,0,0,1-.465,1.531,12.518,12.518,0,0,1-1.349,2.023c-.3.384-.593.735-.87,1.066l-.688.883c-.216.25-.4.452-.539.6a2.512,2.512,0,0,0-.236.263Zm4.768-1.983a1.95,1.95,0,0,0,.317-.519,1.072,1.072,0,0,0,.074-.438.736.736,0,0,0-.108-.344.863.863,0,0,0-.223-.25,1.058,1.058,0,0,0-.324-.169.674.674,0,0,0-.418,0,1.5,1.5,0,0,0-.519.3,4.2,4.2,0,0,0-.641.674c-.25.317-.452.6-.62.843a4.436,4.436,0,0,0-.277.438l1.43,1.133Zm1.74,4.046c.04,0,.155-.155.344-.357s.459-.526.8-.958a5.282,5.282,0,0,0,.526-.782,1.76,1.76,0,0,0,.2-.58.748.748,0,0,0-.047-.432,1.053,1.053,0,0,0-.276-.33,1.194,1.194,0,0,0-.317-.169.675.675,0,0,0-.364,0,1.092,1.092,0,0,0-.418.189,2.266,2.266,0,0,0-.472.479l-1.43,1.814Z" transform="translate(-95.635 -70.603)" fill="#ff9f1c"/>
        <path id="Path_157" data-name="Path 157" d="M278.724,174.619l-7.169-4.721a.9.9,0,0,1-.486-.735,1.646,1.646,0,0,1,.317-.9,2.652,2.652,0,0,1,.5-.573l.33-.283,7.85,5.173Z" transform="translate(-98.52 -68.442)" fill="#ff9f1c"/>
        <path id="Path_158" data-name="Path 158" d="M286.808,158.058a3.919,3.919,0,0,1,0,.533,4.385,4.385,0,0,1-.088.816,6.94,6.94,0,0,1-.277,1.066,8.032,8.032,0,0,1-.566,1.268,6.744,6.744,0,0,1-1.275,1.672,4.944,4.944,0,0,1-1.659,1.052,4.552,4.552,0,0,1-1.942.27,5.092,5.092,0,0,1-2.124-.674,5.293,5.293,0,0,1-1.7-1.4,4.66,4.66,0,0,1-.85-1.767,5.072,5.072,0,0,1-.061-1.969,6.2,6.2,0,0,1,.708-2.023,6.982,6.982,0,0,1,.58-.917,5.946,5.946,0,0,1,.573-.674,4.608,4.608,0,0,1,.513-.445q.243-.169.4-.263a1.625,1.625,0,0,1,.674-.189,1.16,1.16,0,0,1,.931.472,1.786,1.786,0,0,1,.25.438,2.362,2.362,0,0,1,.135.425,1.738,1.738,0,0,1,.047.31l-.472.169a3.029,3.029,0,0,0-.566.317,5.6,5.6,0,0,0-.587.519,3.742,3.742,0,0,0-.546.762,3.372,3.372,0,0,0-.384,1.126,2.7,2.7,0,0,0,.081,1.086,2.631,2.631,0,0,0,.526.971,3.527,3.527,0,0,0,.978.816,3.048,3.048,0,0,0,1.194.384,2.529,2.529,0,0,0,1.086-.135,2.819,2.819,0,0,0,.944-.593,3.993,3.993,0,0,0,.749-.985,4.491,4.491,0,0,0,.506-1.349,3.636,3.636,0,0,0,.074-.985l2.111-.094Z" transform="translate(-100.19 -64.209)" fill="#ff9f1c"/>
        <path id="Path_159" data-name="Path 159" d="M282.391,149.211a1.232,1.232,0,0,1-.674-1.848l1.922-4.613a1.349,1.349,0,0,1,.62-.782,1.093,1.093,0,0,1,.843.04,2.023,2.023,0,0,1,.594.378,3.14,3.14,0,0,1,.324.337l-1.9,4.566,1.382.58,1.47-3.527a1.349,1.349,0,0,1,.62-.776,1.032,1.032,0,0,1,.843.04,1.9,1.9,0,0,1,.593.378,2.642,2.642,0,0,1,.324.337l-1.828,4.39,1.436.593,2.023-4.775,2.023.843-2.934,7.034Z" transform="translate(-101.931 -60.136)" fill="#ff9f1c"/>
      </g>
    </g>
  </g>
</svg>
